%TF.GenerationSoftware,KiCad,Pcbnew,(6.0.0)*%
%TF.CreationDate,2026-05-15T11:55:59+05:30*%
%TF.ProjectId,stm32,73746d33-322e-46b6-9963-61645f706362,rev?*%
%TF.SameCoordinates,Original*%
%TF.FileFunction,Paste,Top*%
%TF.FilePolarity,Positive*%
%FSLAX46Y46*%
G04 Gerber Fmt 4.6, Leading zero omitted, Abs format (unit mm)*
G04 Created by KiCad (PCBNEW (6.0.0)) date 2026-05-15 11:55:59*
%MOMM*%
%LPD*%
G01*
G04 APERTURE LIST*
G04 Aperture macros list*
%AMRoundRect*
0 Rectangle with rounded corners*
0 $1 Rounding radius*
0 $2 $3 $4 $5 $6 $7 $8 $9 X,Y pos of 4 corners*
0 Add a 4 corners polygon primitive as box body*
4,1,4,$2,$3,$4,$5,$6,$7,$8,$9,$2,$3,0*
0 Add four circle primitives for the rounded corners*
1,1,$1+$1,$2,$3*
1,1,$1+$1,$4,$5*
1,1,$1+$1,$6,$7*
1,1,$1+$1,$8,$9*
0 Add four rect primitives between the rounded corners*
20,1,$1+$1,$2,$3,$4,$5,0*
20,1,$1+$1,$4,$5,$6,$7,0*
20,1,$1+$1,$6,$7,$8,$9,0*
20,1,$1+$1,$8,$9,$2,$3,0*%
G04 Aperture macros list end*
%ADD10RoundRect,0.140000X0.140000X0.170000X-0.140000X0.170000X-0.140000X-0.170000X0.140000X-0.170000X0*%
%ADD11RoundRect,0.135000X-0.135000X-0.185000X0.135000X-0.185000X0.135000X0.185000X-0.135000X0.185000X0*%
%ADD12RoundRect,0.140000X-0.140000X-0.170000X0.140000X-0.170000X0.140000X0.170000X-0.140000X0.170000X0*%
%ADD13RoundRect,0.140000X0.170000X-0.140000X0.170000X0.140000X-0.170000X0.140000X-0.170000X-0.140000X0*%
%ADD14RoundRect,0.135000X0.135000X0.185000X-0.135000X0.185000X-0.135000X-0.185000X0.135000X-0.185000X0*%
%ADD15RoundRect,0.140000X-0.170000X0.140000X-0.170000X-0.140000X0.170000X-0.140000X0.170000X0.140000X0*%
%ADD16R,1.300000X0.450000*%
%ADD17R,1.500000X2.000000*%
%ADD18R,3.800000X2.000000*%
%ADD19R,1.200000X1.400000*%
%ADD20RoundRect,0.218750X-0.256250X0.218750X-0.256250X-0.218750X0.256250X-0.218750X0.256250X0.218750X0*%
%ADD21R,0.800000X1.000000*%
%ADD22R,1.500000X0.700000*%
%ADD23RoundRect,0.250000X0.475000X-0.250000X0.475000X0.250000X-0.475000X0.250000X-0.475000X-0.250000X0*%
%ADD24RoundRect,0.250000X-0.250000X-0.475000X0.250000X-0.475000X0.250000X0.475000X-0.250000X0.475000X0*%
%ADD25RoundRect,0.075000X-0.662500X-0.075000X0.662500X-0.075000X0.662500X0.075000X-0.662500X0.075000X0*%
%ADD26RoundRect,0.075000X-0.075000X-0.662500X0.075000X-0.662500X0.075000X0.662500X-0.075000X0.662500X0*%
%ADD27RoundRect,0.135000X-0.185000X0.135000X-0.185000X-0.135000X0.185000X-0.135000X0.185000X0.135000X0*%
G04 APERTURE END LIST*
D10*
%TO.C,C9*%
X53340000Y-74030000D03*
X52380000Y-74030000D03*
%TD*%
D11*
%TO.C,R1*%
X77590000Y-74200000D03*
X78610000Y-74200000D03*
%TD*%
D10*
%TO.C,C5*%
X62940000Y-76030000D03*
X61980000Y-76030000D03*
%TD*%
D12*
%TO.C,C7*%
X56480000Y-63654000D03*
X57440000Y-63654000D03*
%TD*%
D13*
%TO.C,C4*%
X53353200Y-67004200D03*
X53353200Y-66044200D03*
%TD*%
D14*
%TO.C,R4*%
X55110000Y-79450000D03*
X54090000Y-79450000D03*
%TD*%
D10*
%TO.C,C10*%
X53340000Y-75330000D03*
X52380000Y-75330000D03*
%TD*%
D15*
%TO.C,C6*%
X65760000Y-67050000D03*
X65760000Y-68010000D03*
%TD*%
D16*
%TO.C,J1*%
X73845000Y-69805000D03*
X73845000Y-69155000D03*
X73845000Y-68505000D03*
X73845000Y-67855000D03*
X73845000Y-67205000D03*
%TD*%
D11*
%TO.C,R5*%
X56490000Y-79450000D03*
X57510000Y-79450000D03*
%TD*%
D13*
%TO.C,C12*%
X49550000Y-69180000D03*
X49550000Y-68220000D03*
%TD*%
%TO.C,C8*%
X53300000Y-71430000D03*
X53300000Y-70470000D03*
%TD*%
%TO.C,C13*%
X49550000Y-71280000D03*
X49550000Y-70320000D03*
%TD*%
D17*
%TO.C,U1*%
X71300000Y-75350000D03*
X69000000Y-75350000D03*
D18*
X69000000Y-81650000D03*
D17*
X66700000Y-75350000D03*
%TD*%
D19*
%TO.C,Y1*%
X45900000Y-68900000D03*
X45900000Y-71100000D03*
X47600000Y-71100000D03*
X47600000Y-68900000D03*
%TD*%
D20*
%TO.C,FB1*%
X54860000Y-74155000D03*
X54860000Y-75730000D03*
%TD*%
D12*
%TO.C,C3*%
X56320000Y-62250000D03*
X57280000Y-62250000D03*
%TD*%
%TO.C,C11*%
X56780000Y-76030000D03*
X57740000Y-76030000D03*
%TD*%
D20*
%TO.C,D1*%
X78300000Y-77325000D03*
X78300000Y-78900000D03*
%TD*%
D21*
%TO.C,SW1*%
X44470000Y-66200000D03*
X46680000Y-66200000D03*
X46680000Y-58900000D03*
X44470000Y-58900000D03*
D22*
X47330000Y-60300000D03*
X47330000Y-63300000D03*
X47330000Y-64800000D03*
%TD*%
D23*
%TO.C,C2*%
X75300000Y-79050000D03*
X75300000Y-77150000D03*
%TD*%
D24*
%TO.C,C1*%
X68250000Y-71700000D03*
X70150000Y-71700000D03*
%TD*%
D25*
%TO.C,U2*%
X55337500Y-67000000D03*
X55337500Y-67500000D03*
X55337500Y-68000000D03*
X55337500Y-68500000D03*
X55337500Y-69000000D03*
X55337500Y-69500000D03*
X55337500Y-70000000D03*
X55337500Y-70500000D03*
X55337500Y-71000000D03*
X55337500Y-71500000D03*
X55337500Y-72000000D03*
X55337500Y-72500000D03*
D26*
X56750000Y-73912500D03*
X57250000Y-73912500D03*
X57750000Y-73912500D03*
X58250000Y-73912500D03*
X58750000Y-73912500D03*
X59250000Y-73912500D03*
X59750000Y-73912500D03*
X60250000Y-73912500D03*
X60750000Y-73912500D03*
X61250000Y-73912500D03*
X61750000Y-73912500D03*
X62250000Y-73912500D03*
D25*
X63662500Y-72500000D03*
X63662500Y-72000000D03*
X63662500Y-71500000D03*
X63662500Y-71000000D03*
X63662500Y-70500000D03*
X63662500Y-70000000D03*
X63662500Y-69500000D03*
X63662500Y-69000000D03*
X63662500Y-68500000D03*
X63662500Y-68000000D03*
X63662500Y-67500000D03*
X63662500Y-67000000D03*
D26*
X62250000Y-65587500D03*
X61750000Y-65587500D03*
X61250000Y-65587500D03*
X60750000Y-65587500D03*
X60250000Y-65587500D03*
X59750000Y-65587500D03*
X59250000Y-65587500D03*
X58750000Y-65587500D03*
X58250000Y-65587500D03*
X57750000Y-65587500D03*
X57250000Y-65587500D03*
X56750000Y-65587500D03*
%TD*%
D27*
%TO.C,R3*%
X69750000Y-67480000D03*
X69750000Y-68500000D03*
%TD*%
D11*
%TO.C,R2*%
X49240000Y-63250000D03*
X50260000Y-63250000D03*
%TD*%
M02*
