%TF.GenerationSoftware,KiCad,Pcbnew,(6.0.0)*%
%TF.CreationDate,2026-05-15T11:55:59+05:30*%
%TF.ProjectId,stm32,73746d33-322e-46b6-9963-61645f706362,rev?*%
%TF.SameCoordinates,Original*%
%TF.FileFunction,Legend,Top*%
%TF.FilePolarity,Positive*%
%FSLAX46Y46*%
G04 Gerber Fmt 4.6, Leading zero omitted, Abs format (unit mm)*
G04 Created by KiCad (PCBNEW (6.0.0)) date 2026-05-15 11:55:59*
%MOMM*%
%LPD*%
G01*
G04 APERTURE LIST*
%ADD10C,0.150000*%
%ADD11C,0.120000*%
G04 APERTURE END LIST*
D10*
%TO.C,C9*%
X49993333Y-74487142D02*
X49945714Y-74534761D01*
X49802857Y-74582380D01*
X49707619Y-74582380D01*
X49564761Y-74534761D01*
X49469523Y-74439523D01*
X49421904Y-74344285D01*
X49374285Y-74153809D01*
X49374285Y-74010952D01*
X49421904Y-73820476D01*
X49469523Y-73725238D01*
X49564761Y-73630000D01*
X49707619Y-73582380D01*
X49802857Y-73582380D01*
X49945714Y-73630000D01*
X49993333Y-73677619D01*
X50469523Y-74582380D02*
X50660000Y-74582380D01*
X50755238Y-74534761D01*
X50802857Y-74487142D01*
X50898095Y-74344285D01*
X50945714Y-74153809D01*
X50945714Y-73772857D01*
X50898095Y-73677619D01*
X50850476Y-73630000D01*
X50755238Y-73582380D01*
X50564761Y-73582380D01*
X50469523Y-73630000D01*
X50421904Y-73677619D01*
X50374285Y-73772857D01*
X50374285Y-74010952D01*
X50421904Y-74106190D01*
X50469523Y-74153809D01*
X50564761Y-74201428D01*
X50755238Y-74201428D01*
X50850476Y-74153809D01*
X50898095Y-74106190D01*
X50945714Y-74010952D01*
%TO.C,R1*%
X75833333Y-74352380D02*
X75500000Y-73876190D01*
X75261904Y-74352380D02*
X75261904Y-73352380D01*
X75642857Y-73352380D01*
X75738095Y-73400000D01*
X75785714Y-73447619D01*
X75833333Y-73542857D01*
X75833333Y-73685714D01*
X75785714Y-73780952D01*
X75738095Y-73828571D01*
X75642857Y-73876190D01*
X75261904Y-73876190D01*
X76785714Y-74352380D02*
X76214285Y-74352380D01*
X76500000Y-74352380D02*
X76500000Y-73352380D01*
X76404761Y-73495238D01*
X76309523Y-73590476D01*
X76214285Y-73638095D01*
%TO.C,C5*%
X62401169Y-77957142D02*
X62353550Y-78004761D01*
X62210693Y-78052380D01*
X62115455Y-78052380D01*
X61972597Y-78004761D01*
X61877359Y-77909523D01*
X61829740Y-77814285D01*
X61782121Y-77623809D01*
X61782121Y-77480952D01*
X61829740Y-77290476D01*
X61877359Y-77195238D01*
X61972597Y-77100000D01*
X62115455Y-77052380D01*
X62210693Y-77052380D01*
X62353550Y-77100000D01*
X62401169Y-77147619D01*
X63305931Y-77052380D02*
X62829740Y-77052380D01*
X62782121Y-77528571D01*
X62829740Y-77480952D01*
X62924978Y-77433333D01*
X63163074Y-77433333D01*
X63258312Y-77480952D01*
X63305931Y-77528571D01*
X63353550Y-77623809D01*
X63353550Y-77861904D01*
X63305931Y-77957142D01*
X63258312Y-78004761D01*
X63163074Y-78052380D01*
X62924978Y-78052380D01*
X62829740Y-78004761D01*
X62782121Y-77957142D01*
%TO.C,C7*%
X54793333Y-64087142D02*
X54745714Y-64134761D01*
X54602857Y-64182380D01*
X54507619Y-64182380D01*
X54364761Y-64134761D01*
X54269523Y-64039523D01*
X54221904Y-63944285D01*
X54174285Y-63753809D01*
X54174285Y-63610952D01*
X54221904Y-63420476D01*
X54269523Y-63325238D01*
X54364761Y-63230000D01*
X54507619Y-63182380D01*
X54602857Y-63182380D01*
X54745714Y-63230000D01*
X54793333Y-63277619D01*
X55126666Y-63182380D02*
X55793333Y-63182380D01*
X55364761Y-64182380D01*
%TO.C,C4*%
X52893333Y-65487142D02*
X52845714Y-65534761D01*
X52702857Y-65582380D01*
X52607619Y-65582380D01*
X52464761Y-65534761D01*
X52369523Y-65439523D01*
X52321904Y-65344285D01*
X52274285Y-65153809D01*
X52274285Y-65010952D01*
X52321904Y-64820476D01*
X52369523Y-64725238D01*
X52464761Y-64630000D01*
X52607619Y-64582380D01*
X52702857Y-64582380D01*
X52845714Y-64630000D01*
X52893333Y-64677619D01*
X53750476Y-64915714D02*
X53750476Y-65582380D01*
X53512380Y-64534761D02*
X53274285Y-65249047D01*
X53893333Y-65249047D01*
%TO.C,R4*%
X52233333Y-79902380D02*
X51900000Y-79426190D01*
X51661904Y-79902380D02*
X51661904Y-78902380D01*
X52042857Y-78902380D01*
X52138095Y-78950000D01*
X52185714Y-78997619D01*
X52233333Y-79092857D01*
X52233333Y-79235714D01*
X52185714Y-79330952D01*
X52138095Y-79378571D01*
X52042857Y-79426190D01*
X51661904Y-79426190D01*
X53090476Y-79235714D02*
X53090476Y-79902380D01*
X52852380Y-78854761D02*
X52614285Y-79569047D01*
X53233333Y-79569047D01*
%TO.C,C10*%
X49517142Y-75687142D02*
X49469523Y-75734761D01*
X49326666Y-75782380D01*
X49231428Y-75782380D01*
X49088571Y-75734761D01*
X48993333Y-75639523D01*
X48945714Y-75544285D01*
X48898095Y-75353809D01*
X48898095Y-75210952D01*
X48945714Y-75020476D01*
X48993333Y-74925238D01*
X49088571Y-74830000D01*
X49231428Y-74782380D01*
X49326666Y-74782380D01*
X49469523Y-74830000D01*
X49517142Y-74877619D01*
X50469523Y-75782380D02*
X49898095Y-75782380D01*
X50183809Y-75782380D02*
X50183809Y-74782380D01*
X50088571Y-74925238D01*
X49993333Y-75020476D01*
X49898095Y-75068095D01*
X51088571Y-74782380D02*
X51183809Y-74782380D01*
X51279047Y-74830000D01*
X51326666Y-74877619D01*
X51374285Y-74972857D01*
X51421904Y-75163333D01*
X51421904Y-75401428D01*
X51374285Y-75591904D01*
X51326666Y-75687142D01*
X51279047Y-75734761D01*
X51183809Y-75782380D01*
X51088571Y-75782380D01*
X50993333Y-75734761D01*
X50945714Y-75687142D01*
X50898095Y-75591904D01*
X50850476Y-75401428D01*
X50850476Y-75163333D01*
X50898095Y-74972857D01*
X50945714Y-74877619D01*
X50993333Y-74830000D01*
X51088571Y-74782380D01*
%TO.C,C6*%
X67383333Y-67707142D02*
X67335714Y-67754761D01*
X67192857Y-67802380D01*
X67097619Y-67802380D01*
X66954761Y-67754761D01*
X66859523Y-67659523D01*
X66811904Y-67564285D01*
X66764285Y-67373809D01*
X66764285Y-67230952D01*
X66811904Y-67040476D01*
X66859523Y-66945238D01*
X66954761Y-66850000D01*
X67097619Y-66802380D01*
X67192857Y-66802380D01*
X67335714Y-66850000D01*
X67383333Y-66897619D01*
X68240476Y-66802380D02*
X68050000Y-66802380D01*
X67954761Y-66850000D01*
X67907142Y-66897619D01*
X67811904Y-67040476D01*
X67764285Y-67230952D01*
X67764285Y-67611904D01*
X67811904Y-67707142D01*
X67859523Y-67754761D01*
X67954761Y-67802380D01*
X68145238Y-67802380D01*
X68240476Y-67754761D01*
X68288095Y-67707142D01*
X68335714Y-67611904D01*
X68335714Y-67373809D01*
X68288095Y-67278571D01*
X68240476Y-67230952D01*
X68145238Y-67183333D01*
X67954761Y-67183333D01*
X67859523Y-67230952D01*
X67811904Y-67278571D01*
X67764285Y-67373809D01*
%TO.C,R5*%
X58833333Y-79902380D02*
X58500000Y-79426190D01*
X58261904Y-79902380D02*
X58261904Y-78902380D01*
X58642857Y-78902380D01*
X58738095Y-78950000D01*
X58785714Y-78997619D01*
X58833333Y-79092857D01*
X58833333Y-79235714D01*
X58785714Y-79330952D01*
X58738095Y-79378571D01*
X58642857Y-79426190D01*
X58261904Y-79426190D01*
X59738095Y-78902380D02*
X59261904Y-78902380D01*
X59214285Y-79378571D01*
X59261904Y-79330952D01*
X59357142Y-79283333D01*
X59595238Y-79283333D01*
X59690476Y-79330952D01*
X59738095Y-79378571D01*
X59785714Y-79473809D01*
X59785714Y-79711904D01*
X59738095Y-79807142D01*
X59690476Y-79854761D01*
X59595238Y-79902380D01*
X59357142Y-79902380D01*
X59261904Y-79854761D01*
X59214285Y-79807142D01*
%TO.C,C12*%
X49107142Y-66607142D02*
X49059523Y-66654761D01*
X48916666Y-66702380D01*
X48821428Y-66702380D01*
X48678571Y-66654761D01*
X48583333Y-66559523D01*
X48535714Y-66464285D01*
X48488095Y-66273809D01*
X48488095Y-66130952D01*
X48535714Y-65940476D01*
X48583333Y-65845238D01*
X48678571Y-65750000D01*
X48821428Y-65702380D01*
X48916666Y-65702380D01*
X49059523Y-65750000D01*
X49107142Y-65797619D01*
X50059523Y-66702380D02*
X49488095Y-66702380D01*
X49773809Y-66702380D02*
X49773809Y-65702380D01*
X49678571Y-65845238D01*
X49583333Y-65940476D01*
X49488095Y-65988095D01*
X50440476Y-65797619D02*
X50488095Y-65750000D01*
X50583333Y-65702380D01*
X50821428Y-65702380D01*
X50916666Y-65750000D01*
X50964285Y-65797619D01*
X51011904Y-65892857D01*
X51011904Y-65988095D01*
X50964285Y-66130952D01*
X50392857Y-66702380D01*
X51011904Y-66702380D01*
%TO.C,C8*%
X52733333Y-72987142D02*
X52685714Y-73034761D01*
X52542857Y-73082380D01*
X52447619Y-73082380D01*
X52304761Y-73034761D01*
X52209523Y-72939523D01*
X52161904Y-72844285D01*
X52114285Y-72653809D01*
X52114285Y-72510952D01*
X52161904Y-72320476D01*
X52209523Y-72225238D01*
X52304761Y-72130000D01*
X52447619Y-72082380D01*
X52542857Y-72082380D01*
X52685714Y-72130000D01*
X52733333Y-72177619D01*
X53304761Y-72510952D02*
X53209523Y-72463333D01*
X53161904Y-72415714D01*
X53114285Y-72320476D01*
X53114285Y-72272857D01*
X53161904Y-72177619D01*
X53209523Y-72130000D01*
X53304761Y-72082380D01*
X53495238Y-72082380D01*
X53590476Y-72130000D01*
X53638095Y-72177619D01*
X53685714Y-72272857D01*
X53685714Y-72320476D01*
X53638095Y-72415714D01*
X53590476Y-72463333D01*
X53495238Y-72510952D01*
X53304761Y-72510952D01*
X53209523Y-72558571D01*
X53161904Y-72606190D01*
X53114285Y-72701428D01*
X53114285Y-72891904D01*
X53161904Y-72987142D01*
X53209523Y-73034761D01*
X53304761Y-73082380D01*
X53495238Y-73082380D01*
X53590476Y-73034761D01*
X53638095Y-72987142D01*
X53685714Y-72891904D01*
X53685714Y-72701428D01*
X53638095Y-72606190D01*
X53590476Y-72558571D01*
X53495238Y-72510952D01*
%TO.C,C13*%
X47307142Y-73157142D02*
X47259523Y-73204761D01*
X47116666Y-73252380D01*
X47021428Y-73252380D01*
X46878571Y-73204761D01*
X46783333Y-73109523D01*
X46735714Y-73014285D01*
X46688095Y-72823809D01*
X46688095Y-72680952D01*
X46735714Y-72490476D01*
X46783333Y-72395238D01*
X46878571Y-72300000D01*
X47021428Y-72252380D01*
X47116666Y-72252380D01*
X47259523Y-72300000D01*
X47307142Y-72347619D01*
X48259523Y-73252380D02*
X47688095Y-73252380D01*
X47973809Y-73252380D02*
X47973809Y-72252380D01*
X47878571Y-72395238D01*
X47783333Y-72490476D01*
X47688095Y-72538095D01*
X48592857Y-72252380D02*
X49211904Y-72252380D01*
X48878571Y-72633333D01*
X49021428Y-72633333D01*
X49116666Y-72680952D01*
X49164285Y-72728571D01*
X49211904Y-72823809D01*
X49211904Y-73061904D01*
X49164285Y-73157142D01*
X49116666Y-73204761D01*
X49021428Y-73252380D01*
X48735714Y-73252380D01*
X48640476Y-73204761D01*
X48592857Y-73157142D01*
%TO.C,U1*%
X63238095Y-81452380D02*
X63238095Y-82261904D01*
X63285714Y-82357142D01*
X63333333Y-82404761D01*
X63428571Y-82452380D01*
X63619047Y-82452380D01*
X63714285Y-82404761D01*
X63761904Y-82357142D01*
X63809523Y-82261904D01*
X63809523Y-81452380D01*
X64809523Y-82452380D02*
X64238095Y-82452380D01*
X64523809Y-82452380D02*
X64523809Y-81452380D01*
X64428571Y-81595238D01*
X64333333Y-81690476D01*
X64238095Y-81738095D01*
%TO.C,Y1*%
X44090390Y-70549790D02*
X44566580Y-70549790D01*
X43566580Y-70883123D02*
X44090390Y-70549790D01*
X43566580Y-70216457D01*
X44566580Y-69359314D02*
X44566580Y-69930742D01*
X44566580Y-69645028D02*
X43566580Y-69645028D01*
X43709438Y-69740266D01*
X43804676Y-69835504D01*
X43852295Y-69930742D01*
%TO.C,FB1*%
X53726666Y-77258571D02*
X53393333Y-77258571D01*
X53393333Y-77782380D02*
X53393333Y-76782380D01*
X53869523Y-76782380D01*
X54583809Y-77258571D02*
X54726666Y-77306190D01*
X54774285Y-77353809D01*
X54821904Y-77449047D01*
X54821904Y-77591904D01*
X54774285Y-77687142D01*
X54726666Y-77734761D01*
X54631428Y-77782380D01*
X54250476Y-77782380D01*
X54250476Y-76782380D01*
X54583809Y-76782380D01*
X54679047Y-76830000D01*
X54726666Y-76877619D01*
X54774285Y-76972857D01*
X54774285Y-77068095D01*
X54726666Y-77163333D01*
X54679047Y-77210952D01*
X54583809Y-77258571D01*
X54250476Y-77258571D01*
X55774285Y-77782380D02*
X55202857Y-77782380D01*
X55488571Y-77782380D02*
X55488571Y-76782380D01*
X55393333Y-76925238D01*
X55298095Y-77020476D01*
X55202857Y-77068095D01*
%TO.C,C3*%
X54533333Y-62207142D02*
X54485714Y-62254761D01*
X54342857Y-62302380D01*
X54247619Y-62302380D01*
X54104761Y-62254761D01*
X54009523Y-62159523D01*
X53961904Y-62064285D01*
X53914285Y-61873809D01*
X53914285Y-61730952D01*
X53961904Y-61540476D01*
X54009523Y-61445238D01*
X54104761Y-61350000D01*
X54247619Y-61302380D01*
X54342857Y-61302380D01*
X54485714Y-61350000D01*
X54533333Y-61397619D01*
X54866666Y-61302380D02*
X55485714Y-61302380D01*
X55152380Y-61683333D01*
X55295238Y-61683333D01*
X55390476Y-61730952D01*
X55438095Y-61778571D01*
X55485714Y-61873809D01*
X55485714Y-62111904D01*
X55438095Y-62207142D01*
X55390476Y-62254761D01*
X55295238Y-62302380D01*
X55009523Y-62302380D01*
X54914285Y-62254761D01*
X54866666Y-62207142D01*
%TO.C,C11*%
X56817142Y-77787142D02*
X56769523Y-77834761D01*
X56626666Y-77882380D01*
X56531428Y-77882380D01*
X56388571Y-77834761D01*
X56293333Y-77739523D01*
X56245714Y-77644285D01*
X56198095Y-77453809D01*
X56198095Y-77310952D01*
X56245714Y-77120476D01*
X56293333Y-77025238D01*
X56388571Y-76930000D01*
X56531428Y-76882380D01*
X56626666Y-76882380D01*
X56769523Y-76930000D01*
X56817142Y-76977619D01*
X57769523Y-77882380D02*
X57198095Y-77882380D01*
X57483809Y-77882380D02*
X57483809Y-76882380D01*
X57388571Y-77025238D01*
X57293333Y-77120476D01*
X57198095Y-77168095D01*
X58721904Y-77882380D02*
X58150476Y-77882380D01*
X58436190Y-77882380D02*
X58436190Y-76882380D01*
X58340952Y-77025238D01*
X58245714Y-77120476D01*
X58150476Y-77168095D01*
%TO.C,D1*%
X77661904Y-80964880D02*
X77661904Y-79964880D01*
X77900000Y-79964880D01*
X78042857Y-80012500D01*
X78138095Y-80107738D01*
X78185714Y-80202976D01*
X78233333Y-80393452D01*
X78233333Y-80536309D01*
X78185714Y-80726785D01*
X78138095Y-80822023D01*
X78042857Y-80917261D01*
X77900000Y-80964880D01*
X77661904Y-80964880D01*
X79185714Y-80964880D02*
X78614285Y-80964880D01*
X78900000Y-80964880D02*
X78900000Y-79964880D01*
X78804761Y-80107738D01*
X78709523Y-80202976D01*
X78614285Y-80250595D01*
%TO.C,C2*%
X75033333Y-75957142D02*
X74985714Y-76004761D01*
X74842857Y-76052380D01*
X74747619Y-76052380D01*
X74604761Y-76004761D01*
X74509523Y-75909523D01*
X74461904Y-75814285D01*
X74414285Y-75623809D01*
X74414285Y-75480952D01*
X74461904Y-75290476D01*
X74509523Y-75195238D01*
X74604761Y-75100000D01*
X74747619Y-75052380D01*
X74842857Y-75052380D01*
X74985714Y-75100000D01*
X75033333Y-75147619D01*
X75414285Y-75147619D02*
X75461904Y-75100000D01*
X75557142Y-75052380D01*
X75795238Y-75052380D01*
X75890476Y-75100000D01*
X75938095Y-75147619D01*
X75985714Y-75242857D01*
X75985714Y-75338095D01*
X75938095Y-75480952D01*
X75366666Y-76052380D01*
X75985714Y-76052380D01*
%TO.C,C1*%
X65783333Y-72057142D02*
X65735714Y-72104761D01*
X65592857Y-72152380D01*
X65497619Y-72152380D01*
X65354761Y-72104761D01*
X65259523Y-72009523D01*
X65211904Y-71914285D01*
X65164285Y-71723809D01*
X65164285Y-71580952D01*
X65211904Y-71390476D01*
X65259523Y-71295238D01*
X65354761Y-71200000D01*
X65497619Y-71152380D01*
X65592857Y-71152380D01*
X65735714Y-71200000D01*
X65783333Y-71247619D01*
X66735714Y-72152380D02*
X66164285Y-72152380D01*
X66450000Y-72152380D02*
X66450000Y-71152380D01*
X66354761Y-71295238D01*
X66259523Y-71390476D01*
X66164285Y-71438095D01*
%TO.C,U2*%
X58738095Y-63352380D02*
X58738095Y-64161904D01*
X58785714Y-64257142D01*
X58833333Y-64304761D01*
X58928571Y-64352380D01*
X59119047Y-64352380D01*
X59214285Y-64304761D01*
X59261904Y-64257142D01*
X59309523Y-64161904D01*
X59309523Y-63352380D01*
X59738095Y-63447619D02*
X59785714Y-63400000D01*
X59880952Y-63352380D01*
X60119047Y-63352380D01*
X60214285Y-63400000D01*
X60261904Y-63447619D01*
X60309523Y-63542857D01*
X60309523Y-63638095D01*
X60261904Y-63780952D01*
X59690476Y-64352380D01*
X60309523Y-64352380D01*
%TO.C,R3*%
X71372380Y-68156666D02*
X70896190Y-68490000D01*
X71372380Y-68728095D02*
X70372380Y-68728095D01*
X70372380Y-68347142D01*
X70420000Y-68251904D01*
X70467619Y-68204285D01*
X70562857Y-68156666D01*
X70705714Y-68156666D01*
X70800952Y-68204285D01*
X70848571Y-68251904D01*
X70896190Y-68347142D01*
X70896190Y-68728095D01*
X70372380Y-67823333D02*
X70372380Y-67204285D01*
X70753333Y-67537619D01*
X70753333Y-67394761D01*
X70800952Y-67299523D01*
X70848571Y-67251904D01*
X70943809Y-67204285D01*
X71181904Y-67204285D01*
X71277142Y-67251904D01*
X71324761Y-67299523D01*
X71372380Y-67394761D01*
X71372380Y-67680476D01*
X71324761Y-67775714D01*
X71277142Y-67823333D01*
%TO.C,R2*%
X49583333Y-62532380D02*
X49250000Y-62056190D01*
X49011904Y-62532380D02*
X49011904Y-61532380D01*
X49392857Y-61532380D01*
X49488095Y-61580000D01*
X49535714Y-61627619D01*
X49583333Y-61722857D01*
X49583333Y-61865714D01*
X49535714Y-61960952D01*
X49488095Y-62008571D01*
X49392857Y-62056190D01*
X49011904Y-62056190D01*
X49964285Y-61627619D02*
X50011904Y-61580000D01*
X50107142Y-61532380D01*
X50345238Y-61532380D01*
X50440476Y-61580000D01*
X50488095Y-61627619D01*
X50535714Y-61722857D01*
X50535714Y-61818095D01*
X50488095Y-61960952D01*
X49916666Y-62532380D01*
X50535714Y-62532380D01*
D11*
%TO.C,C9*%
X52967836Y-73670000D02*
X52752164Y-73670000D01*
X52967836Y-74390000D02*
X52752164Y-74390000D01*
%TO.C,R1*%
X77946359Y-74580000D02*
X78253641Y-74580000D01*
X77946359Y-73820000D02*
X78253641Y-73820000D01*
%TO.C,C5*%
X62567836Y-75670000D02*
X62352164Y-75670000D01*
X62567836Y-76390000D02*
X62352164Y-76390000D01*
%TO.C,C7*%
X56852164Y-63294000D02*
X57067836Y-63294000D01*
X56852164Y-64014000D02*
X57067836Y-64014000D01*
%TO.C,J3*%
X72000000Y-55570000D02*
X73330000Y-55570000D01*
X70730000Y-55570000D02*
X70730000Y-58230000D01*
X63050000Y-55570000D02*
X63050000Y-58230000D01*
X73330000Y-55570000D02*
X73330000Y-56900000D01*
X70730000Y-58230000D02*
X63050000Y-58230000D01*
X70730000Y-55570000D02*
X63050000Y-55570000D01*
%TO.C,C4*%
X52993200Y-66632036D02*
X52993200Y-66416364D01*
X53713200Y-66632036D02*
X53713200Y-66416364D01*
%TO.C,R4*%
X54753641Y-79830000D02*
X54446359Y-79830000D01*
X54753641Y-79070000D02*
X54446359Y-79070000D01*
%TO.C,C10*%
X52967836Y-75690000D02*
X52752164Y-75690000D01*
X52967836Y-74970000D02*
X52752164Y-74970000D01*
%TO.C,C6*%
X66120000Y-67422164D02*
X66120000Y-67637836D01*
X65400000Y-67422164D02*
X65400000Y-67637836D01*
D10*
%TO.C,J1*%
X79045000Y-64655000D02*
X79045000Y-64355000D01*
X76495000Y-64355000D02*
X75095000Y-64355000D01*
X79045000Y-72655000D02*
X79045000Y-72355000D01*
X75095000Y-72655000D02*
X76495000Y-72655000D01*
X72920000Y-69580000D02*
X72920000Y-70305000D01*
X79495000Y-64655000D02*
X79045000Y-64655000D01*
X72920000Y-70305000D02*
X73345000Y-70305000D01*
X79045000Y-64355000D02*
X78895000Y-64355000D01*
X79045000Y-72355000D02*
X79495000Y-72355000D01*
X73345000Y-66705000D02*
X73345000Y-65705000D01*
X78895000Y-72655000D02*
X79045000Y-72655000D01*
X73345000Y-70305000D02*
X73345000Y-71305000D01*
D11*
%TO.C,R5*%
X56846359Y-79830000D02*
X57153641Y-79830000D01*
X56846359Y-79070000D02*
X57153641Y-79070000D01*
%TO.C,C12*%
X49910000Y-68807836D02*
X49910000Y-68592164D01*
X49190000Y-68807836D02*
X49190000Y-68592164D01*
%TO.C,C8*%
X53660000Y-71057836D02*
X53660000Y-70842164D01*
X52940000Y-71057836D02*
X52940000Y-70842164D01*
%TO.C,C13*%
X49190000Y-70907836D02*
X49190000Y-70692164D01*
X49910000Y-70907836D02*
X49910000Y-70692164D01*
%TO.C,U1*%
X65590000Y-76650000D02*
X65590000Y-80410000D01*
X72410000Y-74400000D02*
X72410000Y-80410000D01*
X65590000Y-80410000D02*
X66850000Y-80410000D01*
X72410000Y-80410000D02*
X71150000Y-80410000D01*
%TO.C,Y1*%
X45100000Y-68000000D02*
X45100000Y-72000000D01*
X48400000Y-68000000D02*
X45100000Y-68000000D01*
%TO.C,J2*%
X58480000Y-55420000D02*
X58480000Y-58080000D01*
X61080000Y-55420000D02*
X61080000Y-56750000D01*
X58480000Y-55420000D02*
X50800000Y-55420000D01*
X59750000Y-55420000D02*
X61080000Y-55420000D01*
X50800000Y-55420000D02*
X50800000Y-58080000D01*
X58480000Y-58080000D02*
X50800000Y-58080000D01*
%TO.C,FB1*%
X55370000Y-74779721D02*
X55370000Y-75105279D01*
X54350000Y-74779721D02*
X54350000Y-75105279D01*
%TO.C,J4*%
X50670000Y-83780000D02*
X50670000Y-82450000D01*
X53270000Y-83780000D02*
X53270000Y-81120000D01*
X53270000Y-81120000D02*
X60950000Y-81120000D01*
X53270000Y-83780000D02*
X60950000Y-83780000D01*
X52000000Y-83780000D02*
X50670000Y-83780000D01*
X60950000Y-83780000D02*
X60950000Y-81120000D01*
%TO.C,C3*%
X56692164Y-62610000D02*
X56907836Y-62610000D01*
X56692164Y-61890000D02*
X56907836Y-61890000D01*
%TO.C,C11*%
X57152164Y-75670000D02*
X57367836Y-75670000D01*
X57152164Y-76390000D02*
X57367836Y-76390000D01*
%TO.C,D1*%
X79035000Y-78912500D02*
X79035000Y-76627500D01*
X77565000Y-76627500D02*
X77565000Y-78912500D01*
X79035000Y-76627500D02*
X77565000Y-76627500D01*
%TO.C,SW1*%
X45970000Y-59100000D02*
X45180000Y-59100000D01*
X44170000Y-59700000D02*
X44170000Y-65400000D01*
X47020000Y-60950000D02*
X47020000Y-62650000D01*
X44170000Y-61150000D02*
X42880000Y-61150000D01*
X45180000Y-66000000D02*
X45970000Y-66000000D01*
X42880000Y-61150000D02*
X42670000Y-61350000D01*
X47020000Y-63950000D02*
X47020000Y-64150000D01*
X42880000Y-62450000D02*
X42670000Y-62250000D01*
X42880000Y-62450000D02*
X44170000Y-62450000D01*
X42670000Y-61350000D02*
X42670000Y-62250000D01*
%TO.C,C2*%
X76035000Y-78361252D02*
X76035000Y-77838748D01*
X74565000Y-78361252D02*
X74565000Y-77838748D01*
%TO.C,C1*%
X68938748Y-70965000D02*
X69461252Y-70965000D01*
X68938748Y-72435000D02*
X69461252Y-72435000D01*
%TO.C,U2*%
X63110000Y-66140000D02*
X63110000Y-66590000D01*
X56340000Y-73360000D02*
X55890000Y-73360000D01*
X63110000Y-73360000D02*
X63110000Y-72910000D01*
X62660000Y-73360000D02*
X63110000Y-73360000D01*
X55890000Y-73360000D02*
X55890000Y-72910000D01*
X56340000Y-66140000D02*
X55890000Y-66140000D01*
X62660000Y-66140000D02*
X63110000Y-66140000D01*
X55890000Y-66140000D02*
X55890000Y-66590000D01*
X55890000Y-66590000D02*
X54600000Y-66590000D01*
%TO.C,R3*%
X70130000Y-67836359D02*
X70130000Y-68143641D01*
X69370000Y-67836359D02*
X69370000Y-68143641D01*
%TO.C,R2*%
X49596359Y-62870000D02*
X49903641Y-62870000D01*
X49596359Y-63630000D02*
X49903641Y-63630000D01*
%TD*%
M02*
