%TF.GenerationSoftware,KiCad,Pcbnew,(6.0.0)*%
%TF.CreationDate,2026-05-15T11:55:59+05:30*%
%TF.ProjectId,stm32,73746d33-322e-46b6-9963-61645f706362,rev?*%
%TF.SameCoordinates,Original*%
%TF.FileFunction,Copper,L1,Top*%
%TF.FilePolarity,Positive*%
%FSLAX46Y46*%
G04 Gerber Fmt 4.6, Leading zero omitted, Abs format (unit mm)*
G04 Created by KiCad (PCBNEW (6.0.0)) date 2026-05-15 11:55:59*
%MOMM*%
%LPD*%
G01*
G04 APERTURE LIST*
G04 Aperture macros list*
%AMRoundRect*
0 Rectangle with rounded corners*
0 $1 Rounding radius*
0 $2 $3 $4 $5 $6 $7 $8 $9 X,Y pos of 4 corners*
0 Add a 4 corners polygon primitive as box body*
4,1,4,$2,$3,$4,$5,$6,$7,$8,$9,$2,$3,0*
0 Add four circle primitives for the rounded corners*
1,1,$1+$1,$2,$3*
1,1,$1+$1,$4,$5*
1,1,$1+$1,$6,$7*
1,1,$1+$1,$8,$9*
0 Add four rect primitives between the rounded corners*
20,1,$1+$1,$2,$3,$4,$5,0*
20,1,$1+$1,$4,$5,$6,$7,0*
20,1,$1+$1,$6,$7,$8,$9,0*
20,1,$1+$1,$8,$9,$2,$3,0*%
G04 Aperture macros list end*
%TA.AperFunction,SMDPad,CuDef*%
%ADD10RoundRect,0.140000X0.140000X0.170000X-0.140000X0.170000X-0.140000X-0.170000X0.140000X-0.170000X0*%
%TD*%
%TA.AperFunction,SMDPad,CuDef*%
%ADD11RoundRect,0.135000X-0.135000X-0.185000X0.135000X-0.185000X0.135000X0.185000X-0.135000X0.185000X0*%
%TD*%
%TA.AperFunction,SMDPad,CuDef*%
%ADD12RoundRect,0.140000X-0.140000X-0.170000X0.140000X-0.170000X0.140000X0.170000X-0.140000X0.170000X0*%
%TD*%
%TA.AperFunction,ComponentPad*%
%ADD13R,1.700000X1.700000*%
%TD*%
%TA.AperFunction,ComponentPad*%
%ADD14O,1.700000X1.700000*%
%TD*%
%TA.AperFunction,SMDPad,CuDef*%
%ADD15RoundRect,0.140000X0.170000X-0.140000X0.170000X0.140000X-0.170000X0.140000X-0.170000X-0.140000X0*%
%TD*%
%TA.AperFunction,SMDPad,CuDef*%
%ADD16RoundRect,0.135000X0.135000X0.185000X-0.135000X0.185000X-0.135000X-0.185000X0.135000X-0.185000X0*%
%TD*%
%TA.AperFunction,SMDPad,CuDef*%
%ADD17RoundRect,0.140000X-0.170000X0.140000X-0.170000X-0.140000X0.170000X-0.140000X0.170000X0.140000X0*%
%TD*%
%TA.AperFunction,SMDPad,CuDef*%
%ADD18R,1.300000X0.450000*%
%TD*%
%TA.AperFunction,ComponentPad*%
%ADD19O,1.800000X1.150000*%
%TD*%
%TA.AperFunction,ComponentPad*%
%ADD20O,2.000000X1.450000*%
%TD*%
%TA.AperFunction,SMDPad,CuDef*%
%ADD21R,1.500000X2.000000*%
%TD*%
%TA.AperFunction,SMDPad,CuDef*%
%ADD22R,3.800000X2.000000*%
%TD*%
%TA.AperFunction,SMDPad,CuDef*%
%ADD23R,1.200000X1.400000*%
%TD*%
%TA.AperFunction,SMDPad,CuDef*%
%ADD24RoundRect,0.218750X-0.256250X0.218750X-0.256250X-0.218750X0.256250X-0.218750X0.256250X0.218750X0*%
%TD*%
%TA.AperFunction,SMDPad,CuDef*%
%ADD25R,0.800000X1.000000*%
%TD*%
%TA.AperFunction,SMDPad,CuDef*%
%ADD26R,1.500000X0.700000*%
%TD*%
%TA.AperFunction,SMDPad,CuDef*%
%ADD27RoundRect,0.250000X0.475000X-0.250000X0.475000X0.250000X-0.475000X0.250000X-0.475000X-0.250000X0*%
%TD*%
%TA.AperFunction,SMDPad,CuDef*%
%ADD28RoundRect,0.250000X-0.250000X-0.475000X0.250000X-0.475000X0.250000X0.475000X-0.250000X0.475000X0*%
%TD*%
%TA.AperFunction,SMDPad,CuDef*%
%ADD29RoundRect,0.075000X-0.662500X-0.075000X0.662500X-0.075000X0.662500X0.075000X-0.662500X0.075000X0*%
%TD*%
%TA.AperFunction,SMDPad,CuDef*%
%ADD30RoundRect,0.075000X-0.075000X-0.662500X0.075000X-0.662500X0.075000X0.662500X-0.075000X0.662500X0*%
%TD*%
%TA.AperFunction,SMDPad,CuDef*%
%ADD31RoundRect,0.135000X-0.185000X0.135000X-0.185000X-0.135000X0.185000X-0.135000X0.185000X0.135000X0*%
%TD*%
%TA.AperFunction,ViaPad*%
%ADD32C,0.700000*%
%TD*%
%TA.AperFunction,Conductor*%
%ADD33C,0.300000*%
%TD*%
%TA.AperFunction,Conductor*%
%ADD34C,0.500000*%
%TD*%
G04 APERTURE END LIST*
D10*
%TO.P,C9,1*%
%TO.N,+3.3VA*%
X53340000Y-74030000D03*
%TO.P,C9,2*%
%TO.N,GND*%
X52380000Y-74030000D03*
%TD*%
D11*
%TO.P,R1,1*%
%TO.N,/PWR_LED_K*%
X77590000Y-74200000D03*
%TO.P,R1,2*%
%TO.N,GND*%
X78610000Y-74200000D03*
%TD*%
D10*
%TO.P,C5,1*%
%TO.N,+3V3*%
X62940000Y-76030000D03*
%TO.P,C5,2*%
%TO.N,GND*%
X61980000Y-76030000D03*
%TD*%
D12*
%TO.P,C7,1*%
%TO.N,+3V3*%
X56480000Y-63654000D03*
%TO.P,C7,2*%
%TO.N,GND*%
X57440000Y-63654000D03*
%TD*%
D13*
%TO.P,J3,1,Pin_1*%
%TO.N,+3V3*%
X72000000Y-56900000D03*
D14*
%TO.P,J3,2,Pin_2*%
%TO.N,/SWDIO*%
X69460000Y-56900000D03*
%TO.P,J3,3,Pin_3*%
%TO.N,/SWCLK*%
X66920000Y-56900000D03*
%TO.P,J3,4,Pin_4*%
%TO.N,GND*%
X64380000Y-56900000D03*
%TD*%
D15*
%TO.P,C4,1*%
%TO.N,+3V3*%
X53353200Y-67004200D03*
%TO.P,C4,2*%
%TO.N,GND*%
X53353200Y-66044200D03*
%TD*%
D16*
%TO.P,R4,1*%
%TO.N,+3V3*%
X55110000Y-79450000D03*
%TO.P,R4,2*%
%TO.N,/12C2_SCL*%
X54090000Y-79450000D03*
%TD*%
D10*
%TO.P,C10,1*%
%TO.N,+3V3*%
X53340000Y-75330000D03*
%TO.P,C10,2*%
%TO.N,GND*%
X52380000Y-75330000D03*
%TD*%
D17*
%TO.P,C6,1*%
%TO.N,+3V3*%
X65760000Y-67050000D03*
%TO.P,C6,2*%
%TO.N,GND*%
X65760000Y-68010000D03*
%TD*%
D18*
%TO.P,J1,1,VBUS*%
%TO.N,VBUS*%
X73845000Y-69805000D03*
%TO.P,J1,2,D-*%
%TO.N,/USB_D-*%
X73845000Y-69155000D03*
%TO.P,J1,3,D+*%
%TO.N,/USB_D+*%
X73845000Y-68505000D03*
%TO.P,J1,4,ID*%
%TO.N,unconnected-(J1-Pad4)*%
X73845000Y-67855000D03*
%TO.P,J1,5,GND*%
%TO.N,GND*%
X73845000Y-67205000D03*
D19*
%TO.P,J1,6,Shield*%
%TO.N,unconnected-(J1-Pad6)*%
X77695000Y-72380000D03*
X77695000Y-64630000D03*
D20*
X73895000Y-72230000D03*
X73895000Y-64780000D03*
%TD*%
D11*
%TO.P,R5,1*%
%TO.N,+3V3*%
X56490000Y-79450000D03*
%TO.P,R5,2*%
%TO.N,/12C2_SDA*%
X57510000Y-79450000D03*
%TD*%
D15*
%TO.P,C12,1*%
%TO.N,/HSE_IN*%
X49550000Y-69180000D03*
%TO.P,C12,2*%
%TO.N,GND*%
X49550000Y-68220000D03*
%TD*%
%TO.P,C8,1*%
%TO.N,+3.3VA*%
X53300000Y-71430000D03*
%TO.P,C8,2*%
%TO.N,GND*%
X53300000Y-70470000D03*
%TD*%
%TO.P,C13,1*%
%TO.N,/HSE_OUT*%
X49550000Y-71280000D03*
%TO.P,C13,2*%
%TO.N,GND*%
X49550000Y-70320000D03*
%TD*%
D21*
%TO.P,U1,1,GND*%
%TO.N,GND*%
X71300000Y-75350000D03*
%TO.P,U1,2,VO*%
%TO.N,+3V3*%
X69000000Y-75350000D03*
D22*
X69000000Y-81650000D03*
D21*
%TO.P,U1,3,VI*%
%TO.N,VBUS*%
X66700000Y-75350000D03*
%TD*%
D23*
%TO.P,Y1,1,1*%
%TO.N,/HSE_IN*%
X45900000Y-68900000D03*
%TO.P,Y1,2,2*%
%TO.N,GND*%
X45900000Y-71100000D03*
%TO.P,Y1,3,3*%
%TO.N,/HSE_OUT*%
X47600000Y-71100000D03*
%TO.P,Y1,4,4*%
%TO.N,GND*%
X47600000Y-68900000D03*
%TD*%
D13*
%TO.P,J2,1,Pin_1*%
%TO.N,+3V3*%
X59750000Y-56750000D03*
D14*
%TO.P,J2,2,Pin_2*%
%TO.N,/USART1_TX*%
X57210000Y-56750000D03*
%TO.P,J2,3,Pin_3*%
%TO.N,/USART1_RX*%
X54670000Y-56750000D03*
%TO.P,J2,4,Pin_4*%
%TO.N,GND*%
X52130000Y-56750000D03*
%TD*%
D24*
%TO.P,FB1,1*%
%TO.N,+3.3VA*%
X54860000Y-74155000D03*
%TO.P,FB1,2*%
%TO.N,+3V3*%
X54860000Y-75730000D03*
%TD*%
D13*
%TO.P,J4,1,Pin_1*%
%TO.N,+3V3*%
X52000000Y-82450000D03*
D14*
%TO.P,J4,2,Pin_2*%
%TO.N,/12C2_SCL*%
X54540000Y-82450000D03*
%TO.P,J4,3,Pin_3*%
%TO.N,/12C2_SDA*%
X57080000Y-82450000D03*
%TO.P,J4,4,Pin_4*%
%TO.N,GND*%
X59620000Y-82450000D03*
%TD*%
D12*
%TO.P,C3,1*%
%TO.N,+3V3*%
X56320000Y-62250000D03*
%TO.P,C3,2*%
%TO.N,GND*%
X57280000Y-62250000D03*
%TD*%
%TO.P,C11,1*%
%TO.N,/NRST*%
X56780000Y-76030000D03*
%TO.P,C11,2*%
%TO.N,GND*%
X57740000Y-76030000D03*
%TD*%
D24*
%TO.P,D1,1,K*%
%TO.N,/PWR_LED_K*%
X78300000Y-77325000D03*
%TO.P,D1,2,A*%
%TO.N,+3V3*%
X78300000Y-78900000D03*
%TD*%
D25*
%TO.P,SW1,*%
%TO.N,*%
X44470000Y-66200000D03*
X46680000Y-66200000D03*
X46680000Y-58900000D03*
X44470000Y-58900000D03*
D26*
%TO.P,SW1,1,A*%
%TO.N,GND*%
X47330000Y-60300000D03*
%TO.P,SW1,2,B*%
%TO.N,/sw_boot0*%
X47330000Y-63300000D03*
%TO.P,SW1,3,C*%
%TO.N,+3V3*%
X47330000Y-64800000D03*
%TD*%
D27*
%TO.P,C2,1*%
%TO.N,+3V3*%
X75300000Y-79050000D03*
%TO.P,C2,2*%
%TO.N,GND*%
X75300000Y-77150000D03*
%TD*%
D28*
%TO.P,C1,1*%
%TO.N,VBUS*%
X68250000Y-71700000D03*
%TO.P,C1,2*%
%TO.N,GND*%
X70150000Y-71700000D03*
%TD*%
D29*
%TO.P,U2,1,VBAT*%
%TO.N,+3V3*%
X55337500Y-67000000D03*
%TO.P,U2,2,PC13*%
%TO.N,unconnected-(U2-Pad2)*%
X55337500Y-67500000D03*
%TO.P,U2,3,PC14*%
%TO.N,unconnected-(U2-Pad3)*%
X55337500Y-68000000D03*
%TO.P,U2,4,PC15*%
%TO.N,unconnected-(U2-Pad4)*%
X55337500Y-68500000D03*
%TO.P,U2,5,PD0*%
%TO.N,/HSE_IN*%
X55337500Y-69000000D03*
%TO.P,U2,6,PD1*%
%TO.N,/HSE_OUT*%
X55337500Y-69500000D03*
%TO.P,U2,7,NRST*%
%TO.N,/NRST*%
X55337500Y-70000000D03*
%TO.P,U2,8,VSSA*%
%TO.N,GND*%
X55337500Y-70500000D03*
%TO.P,U2,9,VDDA*%
%TO.N,+3.3VA*%
X55337500Y-71000000D03*
%TO.P,U2,10,PA0*%
%TO.N,unconnected-(U2-Pad10)*%
X55337500Y-71500000D03*
%TO.P,U2,11,PA1*%
%TO.N,unconnected-(U2-Pad11)*%
X55337500Y-72000000D03*
%TO.P,U2,12,PA2*%
%TO.N,unconnected-(U2-Pad12)*%
X55337500Y-72500000D03*
D30*
%TO.P,U2,13,PA3*%
%TO.N,unconnected-(U2-Pad13)*%
X56750000Y-73912500D03*
%TO.P,U2,14,PA4*%
%TO.N,unconnected-(U2-Pad14)*%
X57250000Y-73912500D03*
%TO.P,U2,15,PA5*%
%TO.N,unconnected-(U2-Pad15)*%
X57750000Y-73912500D03*
%TO.P,U2,16,PA6*%
%TO.N,unconnected-(U2-Pad16)*%
X58250000Y-73912500D03*
%TO.P,U2,17,PA7*%
%TO.N,unconnected-(U2-Pad17)*%
X58750000Y-73912500D03*
%TO.P,U2,18,PB0*%
%TO.N,unconnected-(U2-Pad18)*%
X59250000Y-73912500D03*
%TO.P,U2,19,PB1*%
%TO.N,unconnected-(U2-Pad19)*%
X59750000Y-73912500D03*
%TO.P,U2,20,PB2*%
%TO.N,unconnected-(U2-Pad20)*%
X60250000Y-73912500D03*
%TO.P,U2,21,PB10*%
%TO.N,/12C2_SCL*%
X60750000Y-73912500D03*
%TO.P,U2,22,PB11*%
%TO.N,/12C2_SDA*%
X61250000Y-73912500D03*
%TO.P,U2,23,VSS*%
%TO.N,GND*%
X61750000Y-73912500D03*
%TO.P,U2,24,VDD*%
%TO.N,+3V3*%
X62250000Y-73912500D03*
D29*
%TO.P,U2,25,PB12*%
%TO.N,unconnected-(U2-Pad25)*%
X63662500Y-72500000D03*
%TO.P,U2,26,PB13*%
%TO.N,unconnected-(U2-Pad26)*%
X63662500Y-72000000D03*
%TO.P,U2,27,PB14*%
%TO.N,unconnected-(U2-Pad27)*%
X63662500Y-71500000D03*
%TO.P,U2,28,PB15*%
%TO.N,unconnected-(U2-Pad28)*%
X63662500Y-71000000D03*
%TO.P,U2,29,PA8*%
%TO.N,unconnected-(U2-Pad29)*%
X63662500Y-70500000D03*
%TO.P,U2,30,PA9*%
%TO.N,unconnected-(U2-Pad30)*%
X63662500Y-70000000D03*
%TO.P,U2,31,PA10*%
%TO.N,unconnected-(U2-Pad31)*%
X63662500Y-69500000D03*
%TO.P,U2,32,PA11*%
%TO.N,/USB_D-*%
X63662500Y-69000000D03*
%TO.P,U2,33,PA12*%
%TO.N,/USB_D+*%
X63662500Y-68500000D03*
%TO.P,U2,34,PA13*%
%TO.N,/SWDIO*%
X63662500Y-68000000D03*
%TO.P,U2,35,VSS*%
%TO.N,GND*%
X63662500Y-67500000D03*
%TO.P,U2,36,VDD*%
%TO.N,+3V3*%
X63662500Y-67000000D03*
D30*
%TO.P,U2,37,PA14*%
%TO.N,/SWCLK*%
X62250000Y-65587500D03*
%TO.P,U2,38,PA15*%
%TO.N,unconnected-(U2-Pad38)*%
X61750000Y-65587500D03*
%TO.P,U2,39,PB3*%
%TO.N,unconnected-(U2-Pad39)*%
X61250000Y-65587500D03*
%TO.P,U2,40,PB4*%
%TO.N,unconnected-(U2-Pad40)*%
X60750000Y-65587500D03*
%TO.P,U2,41,PB5*%
%TO.N,unconnected-(U2-Pad41)*%
X60250000Y-65587500D03*
%TO.P,U2,42,PB6*%
%TO.N,/USART1_TX*%
X59750000Y-65587500D03*
%TO.P,U2,43,PB7*%
%TO.N,/USART1_RX*%
X59250000Y-65587500D03*
%TO.P,U2,44,BOOT0*%
%TO.N,/BOOT0*%
X58750000Y-65587500D03*
%TO.P,U2,45,PB8*%
%TO.N,unconnected-(U2-Pad45)*%
X58250000Y-65587500D03*
%TO.P,U2,46,PB9*%
%TO.N,unconnected-(U2-Pad46)*%
X57750000Y-65587500D03*
%TO.P,U2,47,VSS*%
%TO.N,GND*%
X57250000Y-65587500D03*
%TO.P,U2,48,VDD*%
%TO.N,+3V3*%
X56750000Y-65587500D03*
%TD*%
D31*
%TO.P,R3,1*%
%TO.N,+3V3*%
X69750000Y-67480000D03*
%TO.P,R3,2*%
%TO.N,/USB_D+*%
X69750000Y-68500000D03*
%TD*%
D11*
%TO.P,R2,1*%
%TO.N,/sw_boot0*%
X49240000Y-63250000D03*
%TO.P,R2,2*%
%TO.N,/BOOT0*%
X50260000Y-63250000D03*
%TD*%
D32*
%TO.N,GND*%
X45250000Y-73000000D03*
X51750000Y-73000000D03*
X66500000Y-68050500D03*
X59250000Y-76250000D03*
X62000000Y-79500000D03*
X71750000Y-71250000D03*
X52000000Y-71250000D03*
X49500000Y-59000000D03*
X57750000Y-61000000D03*
X61500000Y-61000000D03*
X52000000Y-77000000D03*
X51000000Y-69750000D03*
X79000000Y-76000000D03*
X51000000Y-67500000D03*
X52500000Y-63750000D03*
%TO.N,+3V3*%
X64250000Y-66000000D03*
X63250000Y-79000000D03*
X57000000Y-60250000D03*
X55647015Y-78897015D03*
X56873674Y-78699500D03*
X54407771Y-78157771D03*
X61000000Y-69000000D03*
X61000000Y-67750000D03*
%TO.N,unconnected-(J1-Pad6)*%
X73776852Y-71028053D03*
X76799500Y-69500000D03*
%TD*%
D33*
%TO.N,VBUS*%
X67200000Y-72750000D02*
X68250000Y-71700000D01*
D34*
X69499511Y-70450489D02*
X73224022Y-70450489D01*
X73224022Y-70450489D02*
X73845000Y-69829511D01*
D33*
X67200000Y-74350000D02*
X67200000Y-72750000D01*
D34*
X68250000Y-71700000D02*
X69499511Y-70450489D01*
%TO.N,GND*%
X47330000Y-60300000D02*
X48200000Y-60300000D01*
X71300000Y-71700000D02*
X71750000Y-71250000D01*
X48200000Y-60300000D02*
X49500000Y-59000000D01*
X52380000Y-73630000D02*
X51750000Y-73000000D01*
D33*
X55337500Y-70500000D02*
X53330000Y-70500000D01*
D34*
X62000000Y-79500000D02*
X62000000Y-80070000D01*
D33*
X61750000Y-75800000D02*
X61750000Y-73912500D01*
X57550000Y-63100000D02*
X57550000Y-63544000D01*
D34*
X57280000Y-62250000D02*
X57280000Y-61470000D01*
X59030000Y-76030000D02*
X59250000Y-76250000D01*
X76000000Y-72061022D02*
X76000000Y-68235978D01*
X51750000Y-56750000D02*
X49500000Y-59000000D01*
X71750000Y-71250000D02*
X71750000Y-72021022D01*
D33*
X57250000Y-64650000D02*
X57550000Y-64350000D01*
D34*
X45900000Y-72350000D02*
X45250000Y-73000000D01*
X72500000Y-74350000D02*
X75300000Y-77150000D01*
X71800000Y-73350000D02*
X71800000Y-74350000D01*
X61000000Y-60280000D02*
X61000000Y-61000000D01*
X52380000Y-76620000D02*
X52000000Y-77000000D01*
X65760000Y-68010000D02*
X66459500Y-68010000D01*
X78610000Y-75610000D02*
X79000000Y-76000000D01*
X74656502Y-73404520D02*
X76000000Y-72061022D01*
X71750000Y-72021022D02*
X73133498Y-73404520D01*
D33*
X65760000Y-68010000D02*
X65010361Y-68010000D01*
D34*
X53353200Y-66044200D02*
X53353200Y-64603200D01*
X66459500Y-68010000D02*
X66500000Y-68050500D01*
D33*
X57280000Y-62830000D02*
X57550000Y-63100000D01*
D34*
X57740000Y-76030000D02*
X59030000Y-76030000D01*
X49550000Y-68220000D02*
X50290000Y-68220000D01*
X78610000Y-74200000D02*
X78610000Y-75610000D01*
X64380000Y-56900000D02*
X61000000Y-60280000D01*
D33*
X57550000Y-63764000D02*
X57440000Y-63654000D01*
X57280000Y-62250000D02*
X57280000Y-62830000D01*
D34*
X49550000Y-70320000D02*
X50430000Y-70320000D01*
X73133498Y-73404520D02*
X74656502Y-73404520D01*
D33*
X53300000Y-70470000D02*
X52780000Y-70470000D01*
X64500361Y-67500000D02*
X63662500Y-67500000D01*
D34*
X52130000Y-56750000D02*
X51750000Y-56750000D01*
X74944511Y-67180489D02*
X73845000Y-67180489D01*
D33*
X65010361Y-68010000D02*
X64500361Y-67500000D01*
X57550000Y-64350000D02*
X57550000Y-63764000D01*
D34*
X47600000Y-68900000D02*
X48280000Y-68220000D01*
D33*
X61980000Y-76030000D02*
X61750000Y-75800000D01*
D34*
X61980000Y-79480000D02*
X62000000Y-79500000D01*
X71800000Y-74350000D02*
X72500000Y-74350000D01*
X70150000Y-71700000D02*
X71800000Y-73350000D01*
X61000000Y-61000000D02*
X61500000Y-61000000D01*
X76000000Y-68235978D02*
X74944511Y-67180489D01*
X52380000Y-74030000D02*
X52380000Y-73630000D01*
X50540000Y-67960000D02*
X51000000Y-67500000D01*
D33*
X52780000Y-70470000D02*
X52000000Y-71250000D01*
D34*
X62000000Y-80070000D02*
X59620000Y-82450000D01*
D33*
X57250000Y-65587500D02*
X57250000Y-64650000D01*
D34*
X61980000Y-76030000D02*
X61980000Y-79480000D01*
X50430000Y-70320000D02*
X50750000Y-70000000D01*
X70150000Y-71700000D02*
X71300000Y-71700000D01*
X57280000Y-61470000D02*
X57750000Y-61000000D01*
X50290000Y-68220000D02*
X50540000Y-67970000D01*
X52380000Y-75330000D02*
X52380000Y-76620000D01*
X45900000Y-71100000D02*
X45900000Y-72350000D01*
X50540000Y-67970000D02*
X50540000Y-67960000D01*
X50750000Y-70000000D02*
X51000000Y-69750000D01*
D33*
X57550000Y-63544000D02*
X57440000Y-63654000D01*
D34*
X48280000Y-68220000D02*
X49550000Y-68220000D01*
X53353200Y-64603200D02*
X52500000Y-63750000D01*
D33*
X53330000Y-70500000D02*
X53300000Y-70470000D01*
D34*
%TO.N,+3V3*%
X64030000Y-76030000D02*
X64030000Y-77780000D01*
X54407771Y-78092229D02*
X54407771Y-78157771D01*
X54860000Y-75730000D02*
X54860000Y-77640000D01*
X52000000Y-82450000D02*
X52000000Y-79250000D01*
D33*
X78300000Y-78900000D02*
X75450000Y-78900000D01*
X61000000Y-70750000D02*
X61000000Y-69000000D01*
X75450000Y-78900000D02*
X75300000Y-79050000D01*
X69320000Y-67050000D02*
X69750000Y-67480000D01*
X63662500Y-66587500D02*
X64000000Y-66250000D01*
X57000000Y-78750000D02*
X56949500Y-78699500D01*
X56750480Y-66425841D02*
X56750480Y-66000000D01*
D34*
X53500000Y-77750000D02*
X54000000Y-77750000D01*
D33*
X55110000Y-79450000D02*
X55110000Y-79151214D01*
X65760000Y-67050000D02*
X69320000Y-67050000D01*
X56750000Y-64800000D02*
X56480000Y-64530000D01*
X56480000Y-64530000D02*
X56480000Y-63654000D01*
D34*
X64030000Y-77780000D02*
X64030000Y-78220000D01*
X69500000Y-74350000D02*
X69500000Y-74699022D01*
X72000000Y-56900000D02*
X72000000Y-59250000D01*
D33*
X56320000Y-62250000D02*
X56320000Y-61430000D01*
X65760000Y-67050000D02*
X65710000Y-67000000D01*
X53357400Y-67000000D02*
X53353200Y-67004200D01*
X69000000Y-75350000D02*
X66570000Y-77780000D01*
D34*
X53169493Y-67004200D02*
X53353200Y-67004200D01*
D33*
X53340000Y-75330000D02*
X54460000Y-75330000D01*
X56490000Y-79260000D02*
X57000000Y-78750000D01*
D34*
X73700000Y-80650000D02*
X69500000Y-80650000D01*
X65760000Y-65490000D02*
X65760000Y-67050000D01*
D33*
X56550000Y-62850000D02*
X56550000Y-63584000D01*
X56490000Y-79450000D02*
X55110000Y-79450000D01*
X66570000Y-77780000D02*
X64030000Y-77780000D01*
X54460000Y-75330000D02*
X54860000Y-75730000D01*
X62250000Y-73912500D02*
X62250000Y-72000000D01*
D34*
X54000000Y-77750000D02*
X54407771Y-78157771D01*
X50965293Y-64800000D02*
X53169493Y-67004200D01*
D33*
X56320000Y-62620000D02*
X56550000Y-62850000D01*
X55505607Y-78755607D02*
X55647015Y-78897015D01*
D34*
X64030000Y-76030000D02*
X62940000Y-76030000D01*
X47330000Y-64800000D02*
X50965293Y-64800000D01*
D33*
X56320000Y-62250000D02*
X56320000Y-62620000D01*
D34*
X64030000Y-78220000D02*
X63250000Y-79000000D01*
D33*
X62940000Y-75987715D02*
X62940000Y-76030000D01*
X56490000Y-79450000D02*
X56490000Y-79260000D01*
X55110000Y-79151214D02*
X55505607Y-78755607D01*
X62250000Y-75297715D02*
X62940000Y-75987715D01*
X58324639Y-68000000D02*
X56750480Y-66425841D01*
X62250000Y-73912500D02*
X62250000Y-75297715D01*
D34*
X52000000Y-79250000D02*
X53500000Y-77750000D01*
X54500000Y-78000000D02*
X54407771Y-78092229D01*
D33*
X56949500Y-78699500D02*
X56873674Y-78699500D01*
D34*
X69500000Y-74350000D02*
X69500000Y-80650000D01*
D33*
X65710000Y-67000000D02*
X63662500Y-67000000D01*
X55337500Y-67000000D02*
X53357400Y-67000000D01*
X64000000Y-66250000D02*
X64250000Y-66000000D01*
X63662500Y-67000000D02*
X63662500Y-66587500D01*
X56750480Y-66000000D02*
X56337500Y-66000000D01*
X62250000Y-72000000D02*
X61000000Y-70750000D01*
X56550000Y-63584000D02*
X56480000Y-63654000D01*
X56337500Y-66000000D02*
X55337500Y-67000000D01*
D34*
X54860000Y-77640000D02*
X54500000Y-78000000D01*
D33*
X57000000Y-60750000D02*
X57000000Y-60250000D01*
D34*
X72000000Y-59250000D02*
X65760000Y-65490000D01*
D33*
X56750000Y-65587500D02*
X56750000Y-64800000D01*
X60750000Y-68000000D02*
X58324639Y-68000000D01*
X56320000Y-61430000D02*
X57000000Y-60750000D01*
X61000000Y-67750000D02*
X60750000Y-68000000D01*
X75300000Y-79050000D02*
X73700000Y-80650000D01*
%TO.N,+3.3VA*%
X54069639Y-71430000D02*
X54499639Y-71000000D01*
X53300000Y-71430000D02*
X54069639Y-71430000D01*
X53300000Y-73990000D02*
X53340000Y-74030000D01*
X54499639Y-71000000D02*
X55337500Y-71000000D01*
X53340000Y-74030000D02*
X54735000Y-74030000D01*
X53300000Y-71430000D02*
X53300000Y-73990000D01*
X54735000Y-74030000D02*
X54860000Y-74155000D01*
%TO.N,/NRST*%
X56175361Y-70000000D02*
X56424520Y-70249159D01*
X56424520Y-72900119D02*
X56250000Y-73074639D01*
X56250000Y-73074639D02*
X56250000Y-75500000D01*
X56424520Y-70249159D02*
X56424520Y-72900119D01*
X55337500Y-70000000D02*
X56175361Y-70000000D01*
X56250000Y-75500000D02*
X56780000Y-76030000D01*
%TO.N,/HSE_IN*%
X55337500Y-69000000D02*
X49730000Y-69000000D01*
X49550000Y-69180000D02*
X48780489Y-69949511D01*
X45900000Y-69000000D02*
X45900000Y-68900000D01*
X49760000Y-68970000D02*
X49550000Y-69180000D01*
X48780489Y-69949511D02*
X46849511Y-69949511D01*
X49730000Y-69000000D02*
X49550000Y-69180000D01*
X46849511Y-69949511D02*
X45900000Y-69000000D01*
%TO.N,/HSE_OUT*%
X49592285Y-71280000D02*
X49550000Y-71280000D01*
X55337500Y-69500000D02*
X52750000Y-69500000D01*
X47780000Y-71280000D02*
X47600000Y-71100000D01*
X49550000Y-71280000D02*
X47780000Y-71280000D01*
X50940000Y-71310000D02*
X49580000Y-71310000D01*
X49580000Y-71310000D02*
X49550000Y-71280000D01*
X52750000Y-69500000D02*
X50940000Y-71310000D01*
D34*
%TO.N,/PWR_LED_K*%
X77590000Y-74200000D02*
X77590000Y-76615000D01*
X77590000Y-76615000D02*
X78300000Y-77325000D01*
D33*
%TO.N,/USB_D-*%
X72505000Y-69249520D02*
X72599520Y-69155000D01*
X63662500Y-69000000D02*
X64587505Y-69000000D01*
X64587505Y-69000000D02*
X64837026Y-69249520D01*
X72599520Y-69155000D02*
X73845000Y-69155000D01*
X64837026Y-69249520D02*
X72505000Y-69249520D01*
%TO.N,/USB_D+*%
X69755000Y-68495000D02*
X69750000Y-68500000D01*
X63662500Y-68500000D02*
X64793933Y-68500000D01*
X69500000Y-68750000D02*
X69750000Y-68500000D01*
X64793933Y-68500000D02*
X65043933Y-68750000D01*
X65043933Y-68750000D02*
X69500000Y-68750000D01*
X73845000Y-68505000D02*
X70005000Y-68505000D01*
%TO.N,unconnected-(J1-Pad6)*%
X76750000Y-69500000D02*
X76799500Y-69500000D01*
X75195000Y-64780000D02*
X77695000Y-67280000D01*
X73750000Y-72085000D02*
X73750000Y-71001201D01*
X73895000Y-64780000D02*
X75195000Y-64780000D01*
X77695000Y-64630000D02*
X74045000Y-64630000D01*
X73750000Y-71001201D02*
X73776852Y-71028053D01*
X77695000Y-72380000D02*
X77695000Y-70445000D01*
X77695000Y-70445000D02*
X76750000Y-69500000D01*
X74045000Y-64630000D02*
X73895000Y-64780000D01*
X77695000Y-67280000D02*
X77695000Y-72380000D01*
X73895000Y-72230000D02*
X73750000Y-72085000D01*
%TO.N,/SWDIO*%
X63662500Y-68000000D02*
X62824639Y-68000000D01*
X62824639Y-68000000D02*
X62575480Y-67750841D01*
X62575480Y-67750841D02*
X62575480Y-66674520D01*
X69460000Y-59790000D02*
X69460000Y-56900000D01*
X62575480Y-66674520D02*
X69460000Y-59790000D01*
%TO.N,/SWCLK*%
X62250000Y-61570000D02*
X66920000Y-56900000D01*
X62250000Y-65587500D02*
X62250000Y-61570000D01*
%TO.N,/12C2_SCL*%
X54090000Y-79450000D02*
X54540000Y-79900000D01*
X54104786Y-79450000D02*
X54090000Y-79450000D01*
X60750000Y-73912500D02*
X60750000Y-77000000D01*
X55554786Y-78000000D02*
X54104786Y-79450000D01*
X59750000Y-78000000D02*
X55554786Y-78000000D01*
X60750000Y-77000000D02*
X59750000Y-78000000D01*
X54540000Y-79900000D02*
X54540000Y-82450000D01*
%TO.N,/12C2_SDA*%
X61250000Y-77500000D02*
X60250000Y-78500000D01*
X60250000Y-78500000D02*
X58000000Y-78500000D01*
X58000000Y-78500000D02*
X57510000Y-78990000D01*
X57510000Y-78990000D02*
X57510000Y-79450000D01*
X57510000Y-79450000D02*
X57080000Y-79880000D01*
X57080000Y-79880000D02*
X57080000Y-82450000D01*
X61250000Y-73912500D02*
X61250000Y-77500000D01*
%TO.N,/sw_boot0*%
X47380000Y-63250000D02*
X47330000Y-63300000D01*
X49240000Y-63250000D02*
X47380000Y-63250000D01*
%TO.N,/BOOT0*%
X58750000Y-60750000D02*
X57250000Y-59250000D01*
X51250000Y-59250000D02*
X50260000Y-60240000D01*
X57250000Y-59250000D02*
X51250000Y-59250000D01*
X50260000Y-60240000D02*
X50260000Y-63250000D01*
X58750000Y-65587500D02*
X58750000Y-60750000D01*
%TO.N,/USART1_TX*%
X59750000Y-59290000D02*
X59750000Y-65587500D01*
X57210000Y-56750000D02*
X59750000Y-59290000D01*
%TO.N,/USART1_RX*%
X54670000Y-58170000D02*
X54670000Y-56750000D01*
X59250000Y-59750000D02*
X58250000Y-58750000D01*
X58250000Y-58750000D02*
X55250000Y-58750000D01*
X59250000Y-65587500D02*
X59250000Y-59750000D01*
X55250000Y-58750000D02*
X54670000Y-58170000D01*
%TD*%
M02*
